<svg width="16" height="16" viewBox="0 0 16 16" fill="none" xmlns="http://www.w3.org/2000/svg">
<path fill-rule="evenodd" clip-rule="evenodd" d="M7.9998 15.2C4.02964 15.2 0.799805 11.9702 0.799805 8.00005C0.799805 4.02988 4.02964 0.800049 7.9998 0.800049C11.97 0.800049 15.1998 4.02988 15.1998 8.00005C15.1998 11.9702 11.97 15.2 7.9998 15.2ZM7.99981 2.51118C4.97326 2.51118 2.51086 4.97316 2.51086 8.00012C2.51086 11.0271 4.97326 13.4891 7.99981 13.4891C11.0263 13.4891 13.4887 11.0271 13.4887 8.00012C13.4887 4.97316 11.0263 2.51118 7.99981 2.51118ZM9.48139 9.71666C9.53857 9.65224 9.6387 9.65224 9.70285 9.70941L10.3309 10.2604C10.3666 10.2961 10.3881 10.3387 10.3881 10.3817C10.3881 10.4316 10.3666 10.4746 10.3382 10.503C9.78118 11.0742 9.05296 11.3882 8.29596 11.3882C7.10053 11.3882 6.00978 10.5843 5.52364 9.37046C5.48397 9.27141 5.38979 9.20322 5.28309 9.20322H4.77585C4.68297 9.20322 4.61157 9.13182 4.61157 9.03894V8.48196C4.61157 8.38908 4.68297 8.31768 4.77585 8.31768H5.00885C5.15332 8.31768 5.26491 8.19568 5.26194 8.05125C5.26161 8.03522 5.26143 8.01933 5.26143 8.00363C5.26143 7.98543 5.26167 7.967 5.26209 7.94832C5.26535 7.80406 5.1536 7.68233 5.0093 7.68233H4.77585C4.68297 7.68233 4.61157 7.61092 4.61157 7.51805V6.96106C4.61157 6.86818 4.68297 6.79678 4.77585 6.79678H5.28309C5.38979 6.79678 5.48397 6.7286 5.52364 6.62955C6.00979 5.41568 7.10053 4.61177 8.29596 4.61177C9.05296 4.61177 9.77422 4.92579 10.3382 5.497C10.3621 5.52669 10.3759 5.5612 10.3799 5.59669C10.3815 5.61103 10.3803 5.62554 10.3775 5.63969C10.3693 5.68046 10.3544 5.71534 10.324 5.73965L9.70282 6.31085C9.64564 6.36775 9.54551 6.36775 9.48136 6.3036C9.14585 5.96808 8.7247 5.78232 8.28904 5.78232C7.78131 5.78232 7.30081 6.03313 6.95332 6.45459C6.83259 6.60102 6.94966 6.80338 7.13945 6.80335L8.34623 6.80315C8.43911 6.80315 8.51051 6.87455 8.51051 6.96742V7.52441C8.51051 7.61729 8.43911 7.68869 8.34623 7.68869H6.66072C6.53458 7.68869 6.42652 7.78263 6.42078 7.90864C6.41921 7.94322 6.41842 7.977 6.41842 8.00999C6.41842 8.04123 6.41842 8.07318 6.41885 8.10562C6.42054 8.23096 6.52628 8.32404 6.65163 8.32404H8.34626C8.43914 8.32404 8.51054 8.39545 8.51054 8.48832V9.04531C8.51054 9.13819 8.43914 9.20959 8.34626 9.20959H7.1371C6.94786 9.20959 6.83075 9.41097 6.95078 9.55727C7.30007 9.983 7.78533 10.2307 8.28907 10.2307C8.71747 10.2307 9.14587 10.0522 9.48139 9.71666Z" fill="#141C1E"/>
</svg>
