<svg width="14" height="13" viewBox="0 0 14 13" fill="none" xmlns="http://www.w3.org/2000/svg">
<path fill-rule="evenodd" clip-rule="evenodd" d="M7.18339 10.3096C7.06766 10.2494 6.92985 10.2494 6.81412 10.3096L3.51334 12.0271C3.21965 12.18 2.87805 11.9302 2.93458 11.604L3.56295 7.97793C3.5856 7.84725 3.542 7.71384 3.44655 7.62176L0.787755 5.05669C0.548276 4.82566 0.679167 4.42026 1.00854 4.37289L4.69021 3.84341C4.82015 3.82472 4.93265 3.74346 4.99123 3.62598L6.64079 0.317936C6.78806 0.0226014 7.20945 0.0226024 7.35672 0.317937L9.00628 3.62598C9.06486 3.74347 9.17736 3.82472 9.3073 3.84341L12.989 4.37289C13.3183 4.42026 13.4492 4.82565 13.2098 5.05669L10.551 7.62176C10.4555 7.71384 10.4119 7.84725 10.4346 7.97793L11.0629 11.604C11.1195 11.9302 10.7779 12.18 10.4842 12.0271L7.18339 10.3096Z" fill="#141C1E"/>
</svg>
