<svg width="14" height="16" viewBox="0 0 14 16" fill="none" xmlns="http://www.w3.org/2000/svg">
<path fill-rule="evenodd" clip-rule="evenodd" d="M7.16198 3.71562L8.92418 4.67929L9.88717 6.44148C9.90249 6.46878 9.93113 6.4861 9.96243 6.4861C9.99373 6.4861 10.0224 6.46878 10.0377 6.44148L11.002 4.67929L12.7635 3.71562C12.7908 3.70031 12.8081 3.67167 12.8081 3.64104C12.8081 3.60973 12.7908 3.5811 12.7635 3.56645L11.002 2.60345L10.0377 0.841257C10.0077 0.78598 9.91781 0.786647 9.88784 0.841257L8.92484 2.60345L7.16265 3.56645C7.13534 3.58176 7.11803 3.6104 7.11803 3.64104C7.11803 3.67167 7.13468 3.70031 7.16198 3.71562ZM7.5923 8.28281C7.5923 8.25151 7.57499 8.22288 7.54768 8.20823L5.19679 6.92221L3.91078 4.57132C3.88081 4.51671 3.79091 4.51671 3.7616 4.57132L2.47559 6.92221L0.124699 8.20823C0.0973932 8.22354 0.0800781 8.25218 0.0800781 8.28281C0.0800781 8.31412 0.0973932 8.34275 0.124699 8.35807L2.47559 9.64408L3.7616 11.995C3.77692 12.0223 3.80556 12.0396 3.83619 12.0396C3.86749 12.0396 3.89613 12.0223 3.91078 11.995L5.19679 9.64408L7.54768 8.35807C7.57565 8.34275 7.5923 8.31412 7.5923 8.28281ZM11.8525 10.7731L13.8757 11.8793C13.903 11.8939 13.9204 11.9226 13.9204 11.9546C13.9204 11.9859 13.903 12.0145 13.8757 12.0298L11.8525 13.1367L10.7463 15.1599C10.731 15.1872 10.7024 15.2045 10.6711 15.2045C10.6398 15.2045 10.6111 15.1872 10.5958 15.1599L9.48896 13.1367L7.46507 12.0298C7.43777 12.0145 7.42045 11.9859 7.42045 11.9546C7.42045 11.9233 7.43777 11.8946 7.46507 11.8793L9.48896 10.7731L10.5958 8.74921C10.6111 8.72191 10.6398 8.70459 10.6711 8.70459C10.7024 8.70459 10.731 8.72191 10.7463 8.74921L11.8525 10.7731Z" fill="url(#paint0_linear_2801_16097)"/>
<defs>
<linearGradient id="paint0_linear_2801_16097" x1="0.0800781" y1="0.800049" x2="14.846" y2="1.82128" gradientUnits="userSpaceOnUse">
<stop stop-color="#F8644A"/>
<stop offset="1" stop-color="#F14886"/>
</linearGradient>
</defs>
</svg>
