<svg width="16" height="16" viewBox="0 0 16 16" fill="none" xmlns="http://www.w3.org/2000/svg">
<path fill-rule="evenodd" clip-rule="evenodd" d="M14.3301 0.800049H8.29083C8.06349 0.800049 7.84487 0.88994 7.68211 1.05052L1.0607 7.58684C0.714226 7.92895 0.71248 8.49099 1.05765 8.83484L7.18683 14.9466C7.52676 15.2856 8.07483 15.2843 8.41345 14.944L14.9445 8.37709C15.1082 8.21302 15.1998 7.99004 15.1998 7.75746V1.67583C15.1998 1.19234 14.8106 0.800049 14.3301 0.800049ZM13.4605 7.2124C13.4605 7.32848 13.4146 7.44019 13.333 7.52222L8.10233 12.7813C7.93302 12.9515 7.65898 12.9524 7.48924 12.7826L3.22202 8.52848C3.04966 8.35655 3.05053 8.07553 3.22377 7.90448L8.5195 2.67682C8.60066 2.59653 8.70975 2.55159 8.82364 2.55159H13.0254C13.2658 2.55159 13.4605 2.74795 13.4605 2.9897V7.2124ZM9.45375 4.49261C8.90175 5.0481 8.90175 5.94963 9.45375 6.50512C10.0058 7.06105 10.9003 7.06105 11.4523 6.50512C12.0043 5.94963 12.0043 5.0481 11.4523 4.49261C10.9003 3.93668 10.0058 3.93668 9.45375 4.49261Z" fill="#141C1E"/>
</svg>
