<svg width="20" height="20" viewBox="0 0 20 20" fill="none" xmlns="http://www.w3.org/2000/svg">
<path fill-rule="evenodd" clip-rule="evenodd" d="M17.1667 9.4222C17.3386 9.7198 17.3386 10.0637 17.1347 10.3442L16.3832 11.6592V13.1151C16.3832 13.4436 16.2111 13.7411 15.9291 13.9131L14.6615 14.6486L13.9098 15.9479C13.7378 16.23 13.4402 16.402 13.1117 16.402H11.6093L10.3261 17.1374C10.185 17.2157 10.0284 17.2629 9.87192 17.2629C9.7154 17.2629 9.55889 17.2157 9.41802 17.1374L8.13477 16.402H6.66325C6.33476 16.402 6.03715 16.23 5.86519 15.9479L5.12998 14.6803L3.81497 13.9288C3.53282 13.7566 3.36087 13.4592 3.36087 13.1305V11.6127L2.62563 10.345C2.54737 10.204 2.5 10.0475 2.5 9.89093C2.5 9.73441 2.54737 9.57789 2.62563 9.43681L3.36087 8.16921V6.65115C3.36087 6.32266 3.53282 6.02508 3.81497 5.85311L5.14626 5.08594L5.88147 3.81834C6.05364 3.53639 6.35103 3.36422 6.67973 3.36422H8.15105L9.4343 2.62897C9.71625 2.45701 10.0758 2.45701 10.358 2.62897L11.641 3.36422H13.1434C13.4719 3.36422 13.7695 3.53639 13.9415 3.81834L14.6932 5.11787L15.9608 5.85311C16.243 6.02508 16.4149 6.32266 16.4149 6.65115V8.10721L17.1667 9.4222Z" fill="#36B485"/>
<path fill-rule="evenodd" clip-rule="evenodd" d="M12.3425 7.5379L9.66276 10.2554C9.51705 10.403 9.2815 10.403 9.13617 10.2554L7.48883 8.58504C7.3469 8.44084 7.11776 8.43706 6.9713 8.57636L6.42735 9.09238C6.27371 9.23846 6.26994 9.4842 6.41866 9.6352L8.86362 12.1145C9.15391 12.4089 9.62501 12.4093 9.91567 12.1153L13.3723 8.61788C13.5146 8.47406 13.5187 8.24153 13.3813 8.0928L12.8774 7.54658C12.7336 7.39106 12.4912 7.38691 12.3425 7.5379Z" fill="white"/>
</svg>
